<svg xmlns="http://www.w3.org/2000/svg" viewBox="0 0 512 512"><defs><linearGradient id="a" x2="1" y2="1"><stop stop-color="#6cc8ff"/><stop offset=".55" stop-color="#0b5fff"/><stop offset="1" stop-color="#4f3cff"/></linearGradient><filter id="s" x="-40%" y="-40%" width="180%" height="200%"><feDropShadow dy="26" stdDeviation="20" flood-color="#0b5fff" flood-opacity=".25"/></filter></defs><rect x="66" y="58" width="380" height="380" rx="88" fill="#edf6ff"/><g filter="url(#s)" transform="rotate(7 256 256)"><rect x="166" y="93" width="180" height="324" rx="50" fill="url(#a)"/><rect x="184" y="127" width="144" height="244" rx="30" fill="#fafdff"/><rect x="202" y="156" width="108" height="72" rx="20" fill="#0b5fff"/><circle cx="226" cy="181" r="10" fill="#a8e5ff"/><path d="M244 193l19-22 29 34" fill="none" stroke="#fff" stroke-width="10" stroke-linecap="round"/><rect x="202" y="250" width="84" height="14" rx="7" fill="#bcd7f6"/><rect x="202" y="278" width="106" height="14" rx="7" fill="#d8e7f9"/><rect x="202" y="306" width="92" height="14" rx="7" fill="#d8e7f9"/></g><circle cx="370" cy="128" r="34" fill="#fff"/><path d="M370 110v36M352 128h36" stroke="#6750ff" stroke-width="10" stroke-linecap="round"/></svg>