<svg xmlns="http://www.w3.org/2000/svg" viewBox="0 0 96 96"><defs><radialGradient id="b" cx=".35" cy=".2"><stop stop-color="#304e89"/><stop offset=".55" stop-color="#172849"/><stop offset="1" stop-color="#091226"/></radialGradient><linearGradient id="g" x2="1" y2="1"><stop stop-color="#42e98a"/><stop offset="1" stop-color="#13aa5c"/></linearGradient><filter id="s"><feDropShadow dy="6" stdDeviation="5" flood-color="#000" flood-opacity=".45"/></filter></defs><circle cx="48" cy="48" r="43" fill="url(#b)" filter="url(#s)"/><ellipse cx="36" cy="25" rx="22" ry="8" fill="#fff" opacity=".14"/><circle cx="48" cy="47" r="24" fill="url(#g)"/><path d="M32 67l3-10a23 23 0 1 1 8 8z" fill="url(#g)"/><path fill="#fff" d="M41 34c-1 .1-2 .7-2.7 1.8-2.2 3.1-.7 7.4 3.6 12.7 4.5 5.5 9.6 8.5 13.8 8 1.5-.2 3.5-2 4-3.5.4-1.1.3-2-.4-2.4l-5-2.4c-.8-.4-1.4-.2-1.9.4l-2 2.4c-.4.5-.8.6-1.5.3-1.6-.7-3.7-2.3-5.4-4.1-1.6-1.7-2.8-3.4-3.4-4.8-.3-.7-.2-1.1.3-1.5l2-1.7c.6-.5.8-1.2.5-2l-2-4.7c-.3-.8-1-1-1.9-.9z"/></svg>